<svg width="48" height="48" viewBox="0 0 48 48" fill="none" xmlns="http://www.w3.org/2000/svg">
<path d="M24 40C22.9 40 21.9583 39.6083 21.175 38.825C20.3917 38.0417 20 37.1 20 36C20 34.9 20.3917 33.9583 21.175 33.175C21.9583 32.3917 22.9 32 24 32C25.1 32 26.0417 32.3917 26.825 33.175C27.6083 33.9583 28 34.9 28 36C28 37.1 27.6083 38.0417 26.825 38.825C26.0417 39.6083 25.1 40 24 40ZM24 28C22.9 28 21.9583 27.6083 21.175 26.825C20.3917 26.0417 20 25.1 20 24C20 22.9 20.3917 21.9583 21.175 21.175C21.9583 20.3917 22.9 20 24 20C25.1 20 26.0417 20.3917 26.825 21.175C27.6083 21.9583 28 22.9 28 24C28 25.1 27.6083 26.0417 26.825 26.825C26.0417 27.6083 25.1 28 24 28ZM24 16C22.9 16 21.9583 15.6083 21.175 14.825C20.3917 14.0417 20 13.1 20 12C20 10.9 20.3917 9.95833 21.175 9.175C21.9583 8.39167 22.9 8 24 8C25.1 8 26.0417 8.39167 26.825 9.175C27.6083 9.95833 28 10.9 28 12C28 13.1 27.6083 14.0417 26.825 14.825C26.0417 15.6083 25.1 16 24 16Z" fill="#4CAF50"/>
</svg>
